<svg data-v-0dd9719b="" version="1.0" xmlns="http://www.w3.org/2000/svg" xmlns:xlink="http://www.w3.org/1999/xlink" width="100%" height="100%" viewBox="0 0 340.000000 250.000000" preserveAspectRatio="xMidYMid meet" color-interpolation-filters="sRGB" style="margin: auto;">  <!----> <g data-v-0dd9719b="" fill="#ec945b" class="iconbordersvg" transform="translate(53.007545471191406,97.45818519592285)"><g data-gra="graph-icon-name"><g><rect data-gra="graph-name-bg" stroke-width="3" class="i-icon-bg" x="0" y="0" width="233.9849090576172" height="55.0836296081543" fill-opacity="0" stroke="rgb(236, 148, 91)"></rect> <!----> <!----> </g> <g transform="translate(0,0)"><g data-gra="graph-icon" transform="translate(0,0)"><g><rect data-gra="graph-name-bg" stroke-width="2" class="i-icon-bg" x="0" y="0" width="70" height="55.0836296081543" fill-opacity="0"></rect> <!----> <!----> </g> <g transform="translate(5,5)"><g class="iconsvg-imagesvg"><g><!----> <svg filter="url(#colors6885944051)" x="0" y="0" width="60" height="45.08363013389838" filtersec="colorsf4596910943" class="image-svg-svg primary" style="overflow: visible;"><svg xmlns="http://www.w3.org/2000/svg" viewBox="0.7999999999999998 0 93.7 71.4"><path d="M70.1 2l22.4 22.6-44.8 44.8L2.8 24.6 25.4 2h44.7zM38 59.8l44.9-44.9" fill="none" stroke="#202121" stroke-width="4" stroke-miterlimit="10"></path></svg></svg> <defs><filter id="colors6885944051"><feColorMatrix type="matrix" values="0 0 0 0 0.921875  0 0 0 0 0.578125  0 0 0 0 0.35546875  0 0 0 1 0" class="icon-fecolormatrix"></feColorMatrix></filter> <filter id="colorsf4596910943"><feColorMatrix type="matrix" values="0 0 0 0 0.99609375  0 0 0 0 0.99609375  0 0 0 0 0.99609375  0 0 0 1 0" class="icon-fecolormatrix"></feColorMatrix></filter> <filter id="colorsb250041203"><feColorMatrix type="matrix" values="0 0 0 0 0  0 0 0 0 0  0 0 0 0 0  0 0 0 1 0" class="icon-fecolormatrix"></feColorMatrix></filter></defs></g></g></g></g> <g data-gra="graph-name" transform="translate(70,0)"><g><rect data-gra="graph-name-bg" stroke-width="2" class="i-icon-bg" x="0" y="0" width="163.9849090576172" height="55.0836296081543" fill-opacity="0"></rect> <!----> <!----> </g> <g transform="translate(5,10.14321517944336)"><g data-gra="path-name" fill-rule="" class="tp-name"><g transform="scale(1)"><g><path d="M18.24-30.65L8.84-30.65 8.84-18.61 18.05-18.61Q25.19-18.61 25.19-24.82L25.19-24.82Q25.19-30.46 18.24-30.65L18.24-30.65ZM19.74-14.48L8.84-14.48 8.84 0 4.14 0 4.14-34.41 19.74-34.41Q29.52-34.03 29.89-24.82L29.89-24.82Q29.33-14.85 19.74-14.48L19.74-14.48ZM35.16-34.41L39.48-34.41 39.48 0 35.16 0 35.16-34.41ZM44.18-12.6L44.18-12.6Q44.94-25.38 55.84-25.95L55.84-25.95Q66.75-25.38 67.5-12.6L67.5-12.6Q66.75 0 55.84 0.38L55.84 0.38Q44.94 0 44.18-12.6ZM48.51-12.6L48.51-12.6Q49.07-3.2 55.84-3.01L55.84-3.01Q62.61-3.2 63.17-12.6L63.17-12.6Q62.61-22 55.84-22.19L55.84-22.19Q49.07-22 48.51-12.6ZM92.69-25.19L92.69 0 88.74 0 88.74-3.57 88.55-3.76Q85.92 0.56 80.47 0.38L80.47 0.38Q72.57 0 72.39-7.14L72.39-7.14 72.39-25.19 76.71-25.19 76.71-8.46Q76.71-2.82 81.6-2.82L81.6-2.82Q87.99-3.01 88.55-11.28L88.55-11.28 88.55-25.19 92.69-25.19ZM108.3-25.19L108.3-21.62 104.16-21.62 104.16-5.26Q104.16-3.2 106.6-3.2L106.6-3.2 108.3-3.2 108.3 0Q107.17 0 105.66 0L105.66 0Q105.29 0 105.1 0L105.1 0Q99.65 0 99.84-4.89L99.84-4.89 99.84-21.62 96.64-21.62 96.64-25.19 99.84-25.19 99.84-32.15 104.16-32.15 104.16-25.19 108.3-25.19ZM110.93-12.6L110.93-12.6Q111.68-25.38 122.59-25.95L122.59-25.95Q133.49-25.38 134.24-12.6L134.24-12.6Q133.49 0 122.59 0.38L122.59 0.38Q111.68 0 110.93-12.6ZM115.25-12.6L115.25-12.6Q115.82-3.2 122.59-3.01L122.59-3.01Q129.35-3.2 129.92-12.6L129.92-12.6Q129.35-22 122.59-22.19L122.59-22.19Q115.82-22 115.25-12.6ZM157.37-17.86L157.37-17.86 153.23-17.86Q153.23-22.19 147.22-22.19L147.22-22.19Q142.51-22 142.33-18.61L142.33-18.61Q141.95-16.17 146.84-15.23L146.84-15.23 151.16-14.29Q158.31-12.6 158.12-7.52L158.12-7.52Q157.74 0 148.34 0.38L148.34 0.38Q137.63 0.38 137.44-8.08L137.44-8.08 141.39-8.08Q141.76-2.82 148.34-2.82L148.34-2.82Q153.8-3.01 153.98-6.96L153.98-6.96Q154.36-9.21 149.1-10.53L149.1-10.53 144.02-11.66Q138.19-13.16 138.19-17.67L138.19-17.67Q138.57-25.38 147.78-25.95L147.78-25.95Q156.8-25.76 157.37-17.86Z" transform="translate(-4.139999866485596, 34.40999984741211)"></path></g> <!----> <!----> <!----> <!----> <!----> <!----> <!----></g></g> <!----></g></g></g></g></g><defs v-gra="od"></defs></svg>